<?xml version="1.0" encoding="utf-8"?>
<!-- Generator: Adobe Illustrator 23.0.3, SVG Export Plug-In . SVG Version: 6.00 Build 0)  -->
<svg version="1.1" id="Layer_1" xmlns:serif="http://www.serif.com/"
	 xmlns="http://www.w3.org/2000/svg" xmlns:xlink="http://www.w3.org/1999/xlink" x="0px" y="0px" viewBox="0 0 800 600"
	 style="enable-background:new 0 0 800 600;" xml:space="preserve">
<style type="text/css">
	.st0{fill-rule:evenodd;clip-rule:evenodd;fill-opacity:5.000000e-02;}
	.st1{fill:#D3D3D3;}
	.st2{fill-rule:evenodd;clip-rule:evenodd;fill:#EFEFEF;}
	.st3{fill-rule:evenodd;clip-rule:evenodd;fill:#FFFFFF;}
	.st4{fill-rule:evenodd;clip-rule:evenodd;fill:#E2E2E2;}
	.st5{fill:#EFEFEF;}
	.st6{fill:#DCDCDC;}
	.st7{fill:#FFFFFF;}
	.st8{fill-rule:evenodd;clip-rule:evenodd;fill:#E1E1E1;}
	.st9{fill-rule:evenodd;clip-rule:evenodd;fill:#00B87D;}
	.st10{fill:#02E099;}
	.st11{fill-rule:evenodd;clip-rule:evenodd;fill:#02E099;}
	.st12{fill-rule:evenodd;clip-rule:evenodd;fill:#DCDCDC;}
	.st13{fill-rule:evenodd;clip-rule:evenodd;fill:#A5AFE1;fill-opacity:0.2;}
	.st14{fill-rule:evenodd;clip-rule:evenodd;fill:#394775;}
	.st15{fill:url(#SVGID_1_);}
	.st16{fill-rule:evenodd;clip-rule:evenodd;fill:#0D1737;fill-opacity:0.4;}
	.st17{fill-rule:evenodd;clip-rule:evenodd;fill:#5D6261;}
	.st18{fill-rule:evenodd;clip-rule:evenodd;fill:url(#SVGID_2_);}
	.st19{fill-rule:evenodd;clip-rule:evenodd;fill:url(#SVGID_3_);}
	.st20{fill-rule:evenodd;clip-rule:evenodd;fill:#006B47;fill-opacity:0.2;}
	.st21{fill-rule:evenodd;clip-rule:evenodd;fill:#FF9E5F;}
	.st22{fill-rule:evenodd;clip-rule:evenodd;fill:#F78158;}
	.st23{fill-rule:evenodd;clip-rule:evenodd;fill:url(#SVGID_4_);}
	.st24{fill-rule:evenodd;clip-rule:evenodd;fill:#2E2E2E;}
	.st25{fill-rule:evenodd;clip-rule:evenodd;fill:#2D467B;}
	.st26{fill-rule:evenodd;clip-rule:evenodd;fill:#21C788;}
	.st27{fill:url(#SVGID_5_);}
	.st28{fill-rule:evenodd;clip-rule:evenodd;fill:#49D76D;}
	.st29{fill-rule:evenodd;clip-rule:evenodd;fill:#3FBE5F;}
	.st30{fill-rule:evenodd;clip-rule:evenodd;fill:#F6905A;}
	.st31{fill-rule:evenodd;clip-rule:evenodd;fill:#6F6F6F;}
	.st32{fill-rule:evenodd;clip-rule:evenodd;fill:#737373;}
	.st33{fill-rule:evenodd;clip-rule:evenodd;fill:#626262;}
	.st34{fill-rule:evenodd;clip-rule:evenodd;fill:#FF9862;}
	.st35{fill-rule:evenodd;clip-rule:evenodd;fill:#4252AB;}
	.st36{fill-rule:evenodd;clip-rule:evenodd;fill:#47537D;}
	.st37{fill-rule:evenodd;clip-rule:evenodd;fill:#28D683;}
	.st38{fill-rule:evenodd;clip-rule:evenodd;fill:#636F99;}
	.st39{fill-rule:evenodd;clip-rule:evenodd;fill:#E6EBFC;}
	.st40{opacity:0.1;}
	.st41{fill-rule:evenodd;clip-rule:evenodd;}
	.st42{fill-rule:evenodd;clip-rule:evenodd;fill:#F8F8F8;}
	.st43{fill-rule:evenodd;clip-rule:evenodd;fill:#F2F5FF;}
</style>
<g>
	<g transform="matrix(-1.01723,0,0,1.01504,3667.94,966.523)">
		<g transform="matrix(0.665073,0,0,1.4034,-1777.2,29.4597)">
			<g transform="matrix(2.20997,0,0,1.81465,-4611.14,-2480.72)">
				<ellipse class="st0" cx="5384.1" cy="1140.4" rx="92.3" ry="-1.5"/>
			</g>
			<g transform="matrix(1,0,0,1,-194.3,-520.359)">
				<g transform="matrix(1,0,0,1,-377.805,-295.516)">
					<g transform="matrix(7.19628,0,0,5.78176,5974.32,1669.48)">
						<g transform="matrix(1,0,0,1,54.5226,19.421)">
							<path class="st1" d="M223.3-242.8l-2.6,4.4c-0.1,0.2-0.4,0.3-0.7,0.2c-0.3-0.1-0.4-0.2-0.4-0.4l1.5-4.6
								c0.1-0.4,0.7-0.6,1.4-0.5c0.6,0.1,1,0.4,0.9,0.8C223.4-242.9,223.3-242.8,223.3-242.8"/>
						</g>
						<g transform="matrix(1,0,0,1,67.4422,21.2268)">
							<path class="st1" d="M214.1-245l1.5,4.6c0.1,0.2-0.1,0.4-0.4,0.4c-0.3,0-0.5-0.1-0.6-0.2l-2.6-4.4c-0.2-0.4,0.1-0.7,0.7-0.9
								c0.6-0.1,1.3,0.1,1.5,0.4C214.1-245,214.1-245,214.1-245"/>
						</g>
					</g>
					<g transform="matrix(7.19628,0,0,5.78176,5148.4,1669.48)">
						<g transform="matrix(1,0,0,1,54.5226,19.421)">
							<path class="st1" d="M304.9-242.8l-2.6,4.4c-0.1,0.2-0.4,0.3-0.7,0.2c-0.3-0.1-0.4-0.2-0.4-0.4l1.5-4.6
								c0.1-0.4,0.7-0.6,1.4-0.5c0.6,0.1,1,0.4,0.9,0.8C304.9-242.9,304.9-242.8,304.9-242.8"/>
						</g>
						<g transform="matrix(1,0,0,1,67.4422,21.2268)">
							<path class="st1" d="M295.7-245l1.5,4.6c0.1,0.2-0.1,0.4-0.4,0.4c-0.3,0-0.5-0.1-0.6-0.2l-2.6-4.4c-0.2-0.4,0.1-0.7,0.7-0.9
								c0.6-0.1,1.3,0.1,1.5,0.4C295.7-245,295.7-245,295.7-245"/>
						</g>
					</g>
					<g transform="matrix(1.53632,0,0,0.867264,-1416.3,-236.763)">
						<rect x="5930" y="711.2" class="st2" width="185.3" height="-34.2"/>
					</g>
					<g transform="matrix(1.43535,0,0,0.578176,-935.948,369.744)">
						<rect x="6019" y="9.2" class="st3" width="185.3" height="-34.2"/>
					</g>
					<g transform="matrix(1.42865,0,0,1.23895,-569.619,-1041.34)">
						<rect x="5983.5" y="1147.2" class="st4" width="26.1" height="-24"/>
					</g>
				</g>
				<g transform="matrix(1.57804,6.80491,8.46975,-1.26786,5605.43,1129.7)">
					<path class="st5" d="M-114.6,240.7l1.6,0.2l0.4,2l-1.4,0.8L-114.6,240.7z"/>
				</g>
				<g transform="matrix(1,0,0,1,2.74586,2.27374e-13)">
					<g transform="matrix(8.6155,0,0,6.92201,5595.29,1072.41)">
						<path class="st6" d="M218.8-148.6c-0.5-0.9-1-1.6-1.4-1.5c-0.3,0-0.4,0.7-0.2,1.5H218.8z"/>
					</g>
					<g transform="matrix(8.6155,0,0,6.92201,5597.89,1072.41)">
						<path class="st6" d="M218.6-148.6c0.2-0.8,0.2-1.5-0.2-1.5c-0.4-0.1-0.9,0.6-1.4,1.5H218.6z"/>
					</g>
					<g transform="matrix(8.6155,0,0,6.92201,5596.56,1065.08)">
						<path class="st5" d="M218.7-147.5c-0.1-1-0.4-1.8-0.8-1.8c-0.4,0-0.7,0.8-0.8,1.8H218.7z"/>
					</g>
				</g>
				<g transform="matrix(8.6155,0,0,6.92201,5619.88,1136.32)">
					<path class="st7" d="M217-157.5h-3c-0.1,0-0.2-0.1-0.2-0.1v-0.1c0-0.1,0.1-0.1,0.2-0.1h3c0.1,0,0.2,0.1,0.2,0.1v0.1
						C217.2-157.5,217.1-157.5,217-157.5"/>
				</g>
				<g transform="matrix(7.19628,0,0,5.78176,5263.31,1081.56)">
					<path class="st5" d="M295-179.6c0,0.8-0.6,1.4-1.4,1.4c-0.7,0-1.4-0.6-1.4-1.4c0-0.4,0.2-0.8,0.4-1c0.2-0.2,0.1-0.4-0.1-0.5
						c-0.2-0.1-0.3-0.3-0.4-0.5c-0.1-0.4,0.6-0.9,1.3-0.9c0.7,0,1.4,0.4,1.4,0.8c0,0.2-0.1,0.4-0.4,0.5c-0.2,0.1-0.3,0.3-0.1,0.5
						C294.8-180.4,295-180,295-179.6"/>
				</g>
				<g transform="matrix(7.19628,0,0,5.78176,5342.24,949.126)">
					<path class="st6" d="M287.2-158.9h-9.1l1-2.4c0.2-0.5,1-0.8,1.8-0.8h3.4c0.9,0,1.6,0.4,1.8,0.8L287.2-158.9z"/>
				</g>
				<g transform="matrix(7.19628,0,0,5.78176,5267.66,1172.04)">
					<path class="st6" d="M294.5-193.2c-0.1-0.5-0.7-0.8-1.5-0.8c-0.8,0-1.5,0.4-1.5,0.8H294.5z"/>
				</g>
			</g>
		</g>
		<g transform="matrix(1.79477,0,0,3.04281,-6543.49,-5445.46)">
			<path class="st8" d="M5362.1,1591.3c0.2,0.1,0.2,0.1,0.2,0.2l0,0.1l-0.1,0.1l-0.1,0l-0.1,0H5333l-0.1,0l-0.1,0
				c-0.1-0.1-0.1-0.1-0.1-0.1l0-0.1c0.1-0.1,0.1-0.1,0.2-0.1l0.1,0h28.9C5362,1591.3,5362.1,1591.3,5362.1,1591.3z"/>
		</g>
	</g>
	<g transform="matrix(0.668358,0,0,0.666915,682.799,1803.32)">
		<g transform="matrix(2.17349,0,0,3.68488,-892.173,-1599.17)">
			<path class="st2" d="M136.9-143.1h24.6l-2.6,10.9h-19.4L136.9-143.1z"/>
		</g>
		<g transform="matrix(2.17349,0,0,3.68488,-894.353,-1599.17)">
			<path class="st9" d="M150.2-144.4c0,0-2.7-8.1,3.8-10.7c6.5-2.6,12.5-3.4,11.6-6.9c-0.8-3.5-5.7-1.5-5.8-2.8c0-1.2,3.9-1,7.2-1
				c3.3,0,2.8-2.6,0-3.4c-2.8-0.8-3.2-1.9-0.9-2.6c2.4-0.7,7.2-1.6,4-3.2c-3.2-1.6-8.2-1-10.3,1.2c-2.1,2.1-4.1,2.5-5.9,3
				c-1.8,0.5-2.4,1.4-1.4,2.4c1,1,1.6,1.7-1.3,2.3c-2.9,0.6-6.2,2.5-6,6.5c0.3,4,3.5,5.7,3.4,7.3c-0.1,1.5,0.5,6,0.8,7.1
				C149.7-144.2,150.2-144.4,150.2-144.4z"/>
			<g>
				<path class="st7" d="M150.1-144.9c-0.1,0-0.1,0-0.1-0.1c-2.5-7.3,1.5-18.1,6.8-23.6c5.2-5.3,10.2-6.6,10.2-6.6
					c0.1,0,0.1,0,0.2,0c0,0,0,0.1-0.1,0.1c0,0-5,1.3-10.1,6.6c-5.3,5.5-9.3,16.2-6.8,23.5C150.2-144.9,150.2-144.9,150.1-144.9
					C150.1-144.9,150.1-144.9,150.1-144.9z"/>
			</g>
			<g>
				<path class="st10" d="M154-144.3c-0.1,0-0.1,0-0.1-0.1c0-0.1-0.6-11.9-13.7-20.2c-3.8-2.4-9.8-5.4-17.2-6.3
					c-4.4-0.5-7.3,0-7.3,0c-0.1,0-0.1,0-0.1,0c0,0,0-0.1,0.1-0.1c0,0,2.9-0.5,7.4,0c7.5,0.9,13.6,3.9,17.4,6.3
					c13.2,8.3,13.7,20.1,13.7,20.3C154.1-144.3,154.1-144.3,154-144.3C154-144.3,154-144.3,154-144.3z"/>
			</g>
			<path class="st11" d="M140.7-164.4c0,0,4.5-3.1,5.3-6.8C146.8-175,140.7-173.5,140.7-164.4z"/>
			<path class="st11" d="M140.6-164.3c0,0-1.3,2.5-5.1,3.5c-3.8,1-3.1-1.2-0.7-2.3C137.2-164.1,140.6-164.3,140.6-164.3z"/>
			<path class="st11" d="M126.1-170.4c0,0-3.2-1.4-3.4-4.7C122.5-178.3,127.1-177,126.1-170.4z"/>
			<path class="st11" d="M126.2-170.4c0,0,1.2,3.3-2,4.5C121-164.6,122.6-169.3,126.2-170.4z"/>
			<path class="st11" d="M115.6-170.9c0,0-4.1,3-9.2,4.4C101.2-165.1,104.1-171.5,115.6-170.9z"/>
			<path class="st11" d="M150.6-154.3c0,0,7.2-1.9,9-5.3c1.8-3.4-1.7-3.3-5.5-1.2C150.1-158.8,150.6-154.3,150.6-154.3z"/>
			<path class="st11" d="M150.6-154.5c0,0-3.8-1.1-9.2,0.4c-5.3,1.5-3.3,2.4,0.7,2.5C146.1-151.5,150.6-154.5,150.6-154.5z"/>
		</g>
		<g transform="matrix(2.17349,0,0,3.68488,-894.353,-1599.17)">
			
				<rect x="143.2" y="-147.3" transform="matrix(0.9922 -0.125 0.125 0.9922 19.1832 17.6519)" class="st12" width="14" height="6.6"/>
		</g>
	</g>
	<g transform="matrix(0.876469,0,0,0.837857,148.061,369.246)">
		<g transform="matrix(0.565076,0,0,1,-167.53,-123.908)">
			
				<ellipse transform="matrix(0.9972 -7.428246e-02 7.428246e-02 0.9972 -18.7771 34.6537)" class="st13" cx="456.5" cy="269.8" rx="88.8" ry="17.1"/>
		</g>
		<g>
			<g transform="matrix(0.565076,0,0,1,0,0)">
				<path class="st14" d="M259,99.7l10.6,6.5c0,0,3.4,23,5.9,25.7c2.5,2.7,31.7,8.6,33.2,14h-73.2l-14.7-39.6L259,99.7z"/>
			</g>
			<linearGradient id="SVGID_1_" gradientUnits="userSpaceOnUse" x1="107.0039" y1="-78.978" x2="130.1714" y2="64.3372">
				<stop  offset="0" style="stop-color:#1B264D"/>
				<stop  offset="1" style="stop-color:#5A6792"/>
			</linearGradient>
			<path class="st15" d="M152.4,106.2h-27.5c0,0-4.6-18-10.3-40.9c-7.6-30.8-17.2-70.4-20-87.1C93-31,91.1-41.5,89.1-51.4
				C84.9-72.8,80.6-92,80.6-92l4.9-1.2l8.9-2.1l21-4.9l12.4,8.2c0,0,18.1,94.1,21.5,142.5C152.8,98.8,152.4,106.2,152.4,106.2z"/>
			<g>
				<path class="st16" d="M114.5,65.3c-7.6-30.8-17.2-70.4-20-87.1C93-31,91.1-41.5,89.1-51.4c-1.7-18.9-3-34.5-3.5-41.7
					c-0.2-2.8-0.3-4.3-0.3-4.3l9.3,2.2l21,5c0,0-4.4,24.2-8,37.1c-3.7,12.9,7,57.2,10.8,85.1C120.9,51.1,118.8,59.4,114.5,65.3z"/>
			</g>
			<g transform="matrix(0.565076,0,0,1,0,0)">
				<path class="st17" d="M87.4-86.9c0,0,1,9.9,24.1,6.3c23.1-3.7,9.9-20,9.9-20S87.9-104,87.4-86.9z"/>
			</g>
			<g transform="matrix(0.565076,0,0,1,0,0)">
				<path class="st14" d="M17.9,95.6H1.2c0,0-32.7,14.9-30.1,21.3c2.6,6.4,28.5,28.1,35.3,28.9h30.2c0,0-1.7-5.5-11.5-7.3
					c-9.8-1.8-12.8-10.4-12.9-13.6c0-3.2,14.9-8,14.9-8L17.9,95.6z"/>
			</g>
			<g transform="matrix(0.565076,0,0,1,0,0)">
				
					<linearGradient id="SVGID_2_" gradientUnits="userSpaceOnUse" x1="-1611.4188" y1="1171.2207" x2="-1611.0769" y2="1171.2207" gradientTransform="matrix(-56.9763 269.6368 771.668 56.9766 -995488.3125 367662.4688)">
					<stop  offset="0" style="stop-color:#1B264D"/>
					<stop  offset="1" style="stop-color:#5A6792"/>
				</linearGradient>
				<path class="st18" d="M179.1-88.9c0,0-3.6,113.1-25.2,139.4c-21.7,26.3-103.3,58.1-126.7,66.4c0,0-15-4-25.9-21.3
					c12-2.5,71.9-60.8,86.1-68.3c0,0,6.8-89,10.6-117C101.7-117.7,179.1-88.9,179.1-88.9z"/>
			</g>
			<g transform="matrix(0.565076,0,0,1,0,0)">
				<g>
					<linearGradient id="SVGID_3_" gradientUnits="userSpaceOnUse" x1="66.8554" y1="-143.5317" x2="262.3651" y2="-143.5317">
						<stop  offset="0" style="stop-color:#B749FF"/>
						<stop  offset="1" style="stop-color:#5C03CD"/>
					</linearGradient>
					<path class="st19" d="M384.1-113.9c0,0-2.8,25.4-11.2,27.1c-3.3,0.6-13.9-0.9-27.4-3.6c-3.6-0.7-7.4-1.5-11.4-2.4
						c-19-4.1-41.1-9.5-56.8-13.9c-0.9-0.3-1.9-0.5-2.8-0.8c-29.9-9.5-52.3-35.7-52.3-35.7s3.2,44.7,4,51.2
						c0.8,6.6-11.4,6.3-54.2,2.5c-29.6-2.7-53-2.8-68.6-1c-7,0.8-12.4,2-16.1,3.6c0,0-1.4-15.1,0-21.5l0,0
						c-0.6,0.2-34.1,10.6-48.5-7.8c-14.4-18.5,10.3-59.8,24.3-70c14-10.2,60.5-13.2,60.5-13.2l41.5-0.6l20.2-0.3l4.7,1
						c0,0,4.4,0.6,10.6,1.8h0c12.7,2.5,33.2,7.3,40.2,14.3c10.4,10.4,49.9,47.8,64.1,53.3c5.5,2.1,18.8,5.1,32.9,7.8h0
						c3.6,0.7,7.2,1.4,10.8,2.1C367.1-116.7,384.1-113.9,384.1-113.9z"/>
					<path class="st20" d="M196-194c-12.7-3.6-24.3-5.2-30.8-6.1l20.2-0.3l4.7,1c0,0,4.4,0.6,10.6,1.8h0
						C203.8-194.3,207-190.9,196-194z"/>
					<g>
						<g transform="matrix(0.565076,0,0,1,0,0)">
							<path class="st21" d="M335.7-195.6c-2.6,3.7-12.4,8.9-47.2,9.4c-54.6,0.8-69.4-6.5-69.7-13.2c0,0,17.6-1.1,18.1-4.3
								c0.3-1.9,1.3-3.5,0.1-5.3c-0.9-1.3-3.1-2.7-7.6-4.4c-10.7-3.9-46.8-18.1-25.6-31.5c19.6-12.4,83.8-17.1,106-6.1
								c1.8,0.9,3.3,1.8,4.4,2.9c0,0,25.9,19.8,13.7,29c-2.6,1.9-5.7,3.3-8.8,4.4c0,0-0.1,0-0.2,0.1c-1.3,0.4-2.7,0.8-4,1.2
								c-0.2,0-0.3,0.1-0.5,0.1c-4.3,1.1-8.5,1.8-11.6,2.7c-4.2,1.3-6.4,3.1-4.1,6.9c0,0,24.5,2.8,37.4,4.3
								C336.2-199.4,337.1-197.8,335.7-195.6z"/>
						</g>
						<path class="st22" d="M189.7-195.6c-11.7-2.8-21.8-4-26.8-4.7c-5.9-0.8-7.8-7.5,0-8.2c2.7-0.3,5.6-1.1,8.2-2
							c-2.4,1.3-3.6,3.1-2.3,6.9c0,0,13.9,2.8,21.2,4.3C190-199.4,190.5-197.8,189.7-195.6z"/>
						<linearGradient id="SVGID_4_" gradientUnits="userSpaceOnUse" x1="87.7087" y1="-233.0412" x2="124.4885" y2="-233.0412">
							<stop  offset="0" style="stop-color:#1B264D"/>
							<stop  offset="1" style="stop-color:#5A6792"/>
						</linearGradient>
						<path class="st23" d="M175.1-250.9c-0.9,2.3-4,4.8-12.1,6.1c-19,3.1-11.7,9.3-14.7,10c-3,0.7-12.8-1.2-14.3,4.4
							c-1.5,5.7,9.4,5.7,9.4,5.7s-5,10.4-9.4,15.7c-0.5-1.3-1.7-2.7-4.3-4.4c-6-3.9-26.5-18.1-14.5-31.5
							C126.3-257.2,162.5-261.9,175.1-250.9z"/>
					</g>
					<path class="st20" d="M186-132.8c-23,6.5-61,23.4-74.5,33.4c-4.1,3-6.3,6.1-8,8.9c-7,0.8-12.4,2-16.1,3.6c0,0-1.4-15.1,0-21.5
						c0,0,56.6-16.9,74.1-22.8l1.5-9.8c0,0,3.9-13.2,23-17.1c19.1-3.9,1.4,6.9,6.9,9C198.4-146.9,209-139.3,186-132.8z"/>
					<path class="st20" d="M274.5-107.5c-29.9-9.5-52.3-35.7-52.3-35.7s-1-11.3,0-15.1c1-3.8,14.1-1.3,15.3,12.5
						c1.2,13.7,10.2,13.3,21.5,22.2C268.4-116.2,280-109.4,274.5-107.5z"/>
					<g transform="matrix(1.07139,0,0,1.07139,-385.25,-390.385)">
						<path class="st20" d="M682.1,280c-3.4-0.7-6.9-1.4-10.6-2.2c0.6-1.8,2.4-18.7,3.4-27.4h0c3.4,0.7,6.8,1.3,10.1,1.9
							C687,262.1,685.5,277.3,682.1,280z"/>
					</g>
					<g transform="matrix(0.565076,0,0,1,0,0)">
						<path class="st20" d="M158.6-142.2c0,0,0.8-10,8.4-13.2c7.6-3.1,0.2,7.5,9.8,6.3C186.4-150.2,203.3-149.2,158.6-142.2z"/>
					</g>
				</g>
				<g>
					<g>
						<g transform="matrix(0.899907,0,0,0.942918,-119.408,-310.428)">
							<path class="st24" d="M365.3,151.2c0-3.1-4.4-5.6-9.9-5.6h-19.8c-5.5,0-9.9,2.5-9.9,5.6v27.2c0,3.1,4.4,5.6,9.9,5.6h19.8
								c5.5,0,9.9-2.5,9.9-5.6V151.2z"/>
						</g>
						<g transform="matrix(1.07139,0,0,1.07139,-298.949,-440.703)">
							<path class="st21" d="M436.8,264.3l4.4-4.8v3.5L436.8,264.3z"/>
						</g>
					</g>
				</g>
			</g>
			<g transform="matrix(0.565076,0,0,1,0,0)">
				<path class="st25" d="M164.1-138.2l-5.7,5.4c0,0,3.7,4.9,7.6-2.6C169.9-143,164.1-138.2,164.1-138.2z"/>
			</g>
			<g transform="matrix(0.565076,0,0,1,0,0)">
				<path class="st21" d="M158.5-154c0,0-10.4,12,0,21.2c0,0,17.6-5.9,24.6-9.3c7-3.4,8.7-6,3.6-6.7c-5.1-0.7,12.5-7.2,5.9-8.1
					c-6.6-0.9-3-1.7,7-5.5c10.1-3.8,3.4-4.1-13,0C170.3-158.2,158.5-154,158.5-154z"/>
			</g>
		</g>
		<g transform="matrix(0.530627,0,0,0.897668,54.2335,349.793)">
			<path class="st26" d="M132.3-274.2c0,0-2.6-1.1-1.3,2.5c1.3,3.6,7.9,3.4,17,3.4c9.2,0,36.5,1.1,39.4,0c2.9-1.1,1.4-4.4,0-5.9
				C186-275.6,136.7-276.1,132.3-274.2z"/>
		</g>
		<g transform="matrix(0.304269,0.582332,-0.397574,0.59451,1043.09,247.595)">
			<path class="st26" d="M-1649.6,1358.8c0,0-1.5,0.3-1.9,3.6c-0.6,4.8,5,3.3,12.2,1.8c7.2-1.5,28.3-4.6,31-6.5
				c2.6-1.9,2.7-6.2,2.1-8C-1606.8,1348-1645.5,1355.5-1649.6,1358.8z"/>
		</g>
	</g>
	<g transform="matrix(0.939036,0,0,0.897668,307.228,84.3953)">
		<linearGradient id="SVGID_5_" gradientUnits="userSpaceOnUse" x1="37.8658" y1="123.0866" x2="187.4402" y2="337.8164">
			<stop  offset="0" style="stop-color:#A9F7D2"/>
			<stop  offset="1" style="stop-color:#34E6E2"/>
		</linearGradient>
		<path class="st27" d="M206.4,51.6H40.2c-17,0-30.9,14.5-30.9,32.3v335.2c0,17.8,13.8,32.3,30.9,32.3h166.2
			c17,0,30.9-14.5,30.9-32.3V83.8C237.3,66,223.5,51.6,206.4,51.6z"/>
		<g transform="matrix(0.408637,0,0,0.882796,170.885,332.314)">
			
				<rect x="-116.7" y="-119083.7" transform="matrix(-0.6981 -0.716 0.716 -0.6981 -131.8061 -239.2931)" class="st3" width="0.8" height="237983.7"/>
		</g>
		<g transform="matrix(0.565076,0,0,1,-172.64,453.503)">
			<path class="st3" d="M569.6-387.8c0-2.1-2.9-3.8-6.5-3.8h-78.7c-3.6,0-6.5,1.7-6.5,3.8v0c0,2.1,2.9,3.8,6.5,3.8h78.7
				C566.7-383.9,569.6-385.6,569.6-387.8L569.6-387.8z"/>
		</g>
	</g>
	<g transform="matrix(1.01723,0,0,1.01504,-42.7426,99.5572)">
		<g transform="matrix(0.521637,0,0,0.88437,336.013,209.864)">
			<g>
				<defs>
					<path id="SVGID_6_" d="M294.8-106c0-2-1.4-4-3.8-5.4c-2.4-1.4-5.7-2.2-9.1-2.2H126.8c-3.4,0-6.7,0.8-9.1,2.2
						c-2.4,1.4-3.8,3.4-3.8,5.4V0.5c0,2,1.4,4,3.8,5.4s5.7,2.2,9.1,2.2h155.1c3.4,0,6.7-0.8,9.1-2.2c2.4-1.4,3.8-3.4,3.8-5.4V-106z"
						/>
				</defs>
				<linearGradient id="SVGID_7_" gradientUnits="userSpaceOnUse" x1="150.9705" y1="-98.0891" x2="203.7839" y2="-22.2698">
					<stop  offset="0" style="stop-color:#A9F7D2"/>
					<stop  offset="1" style="stop-color:#34E6E2"/>
				</linearGradient>
				<use xlink:href="#SVGID_6_"  style="overflow:visible;fill:url(#SVGID_7_);"/>
				<clipPath id="SVGID_8_">
					<use xlink:href="#SVGID_6_"  style="overflow:visible;"/>
				</clipPath>
			</g>
		</g>
		<g>
			<g transform="matrix(0.521637,0,0,0.88437,95.3333,303.076)">
				<path class="st28" d="M738.1-121.4c-2.9,4.7-13.2,6-24.9,6.1c-11.7,0.1-25.4,1-25.4,1l-4.2-0.4l-27.4-2.5c0,0,8-13.4,5.6-17.7
					c-2.4-4.3-6.6-5.1-9.2-10.7c0,0-9.7-3.4-20.1-8.3h0c-6.7-3.1-13.8-6.8-18.7-10.6c-10-7.6,11.1-14.9,29.5-18.1
					c4.6-0.8,9.1-1.4,12.9-1.7v6.6c0,0-2.5,0.7-5.8,1.8c-6.3,2.1-15.5,5.5-15.6,7.4c-0.2,3,32.1,3.5,50.1,3.5
					c18-0.1,26.1,1.2,35.9,10c9.8,8.8,9.5,15.3,9.5,15.3S741-126.1,738.1-121.4z"/>
			</g>
			<g>
				<g transform="matrix(1,0,0,1,-102.207,-453.61)">
					<path class="st29" d="M538,621.6c-1,3.1,0,6.3,0,6.3s-5.1-3-10.5-7.3C531.4,622.6,539,618.5,538,621.6z"/>
				</g>
				<g transform="matrix(1,0,0,1,-102.207,-453.61)">
					<path class="st30" d="M539.9,593.8v5.8c0,0-1.3,0.7-3,1.6c-2.2-2.4-3.7-5.9-3.7-5.9C535.6,594.5,537.9,594,539.9,593.8z"/>
				</g>
			</g>
			<g transform="matrix(0.521637,0,0,0.88437,95.3333,303.076)">
				<path class="st29" d="M699.1-149.2c0,0,16.2,14.5,16.8,18.4c0.6,3.9-24.4,6-29.3,9.8c-4.9,3.8,1.2,6.7,1.2,6.7s-11,0-10.3-5.2
					s14.2-4.9,17.5-8c3.4-3.1-0.2-5.1,4.1-7.1c4.3-2,8.4-1.9,2.5-8.8C695.7-150,699.1-149.2,699.1-149.2z"/>
			</g>
		</g>
		<g transform="matrix(0.485966,-0.321416,0.189584,0.823894,-50.1967,1145.37)">
			<path class="st31" d="M1291.5-715.6c-0.1-0.6-0.9-1.1-1.7-1.2c-3.7-0.5-13.3-2-17.1-2.5c-0.8-0.1-1.4,0.2-1.3,0.8
				c0.3,1.4,0.8,3.7,1.1,5.1c0.1,0.6,0.9,1.1,1.7,1.2c3.7,0.5,13.3,2,17.1,2.5c0.8,0.1,1.4-0.2,1.3-0.8
				C1292.3-711.8,1291.8-714.2,1291.5-715.6z"/>
		</g>
		<g transform="matrix(0.521637,0,0,0.88437,95.3333,303.076)">
			<path class="st32" d="M756.2-118.9v14.2c0,4.1-5.7,7.5-12.7,7.5H588c-3.4,0-6.6-0.8-9-2.2c-2.4-1.4-3.7-3.3-3.7-5.3v-12.6
				c22.8-1.9,52-3.2,84.2-3.5c5.9-0.1,11.9-0.1,17.9-0.1c3,0,6,0,9,0c-0.8,0.3-8.6,3.1,1.4,6.7c0,0,13.7-0.9,25.4-1
				c10.3-0.1,19.5-1.1,23.6-4.6C743.5-119.6,750-119.3,756.2-118.9z"/>
		</g>
		<g>
			<g transform="matrix(1,0,0,1,-102.207,-453.61)">
				<path class="st33" d="M592,651.5v9.3c-1.6,1.4-3.9,2.4-7.5,2.4c-10.4-0.1-31-6-30.8-8.1c0.2-1.9-10-4.7-12.1-5.2
					c3.1-0.1,6.2-0.1,9.3-0.1c1.6,0,3.1,0,4.7,0c-0.4,0.3-4.5,2.7,0.7,5.9c0,0,7.1-0.8,13.2-0.9c5.4-0.1,10.2-1,12.3-4.1
					C585.4,650.9,588.8,651.2,592,651.5z"/>
			</g>
		</g>
		<g transform="matrix(0.521637,0,0,0.88437,95.3333,303.076)">
			<path class="st34" d="M657.4-185.9c0,0-5.8,8-4.5,13.8c1.3,5.8,10.9,4.3,11.2,7.2c0.3,2.9,7.6,7.4,20.8,0c0,0-4.4-1-2.7-6.6
				C683.9-177.1,667.7-188.7,657.4-185.9z"/>
		</g>
		<g transform="matrix(0.521637,0,0,0.88437,95.3333,303.076)">
			<path class="st35" d="M661.8-188.5c0,0-6.7,0.6-5.3,4c2.3,5.5,15.5,3,16.4,4.7c2.5,4.5,0.6,7.4,7.2,8.8c0,0,0.6,5.3,4.9,6.1
				c0,0,15.9,0.2,24.1,4c8.2,3.9,21.3,21.2,21.3,21.2s12.1-5.1,6.1-13.3c-6-8.2-21.9-6.1-21-13.1c0.9-7-1.4-14.3-15.4-13.8
				c-14,0.5-14.7-2.1-18-5.5C678.8-188.7,668.1-189.9,661.8-188.5z"/>
		</g>
		<g transform="matrix(0.521637,0,0,0.88437,95.3333,303.076)">
			<path class="st34" d="M686.5-120.9c0,0-4.8,3.2,1.3,6.7c0,0-5,3.2-10.3,2.8C672.2-111.9,675.1-118.2,686.5-120.9"/>
		</g>
		<g transform="matrix(0.923128,0,0,0.88437,95.3333,303.076)">
			<g transform="matrix(0.565076,0,0,1,11.4575,6.00815)">
				<path class="st29" d="M588.9-136.1c0.6-4.2,2.1-7.2,3.9-7.2c2.3,0,4.1,4.9,4.1,10.8s-1.8,10.8-4.1,10.8c-1.3,0-2.4-1.6-3.2-4.1
					c-0.4,2.4-1.2,4.1-2.1,4.1c-1.3,0-2.4-3.6-2.4-8c0-4.4,1.1-8,2.4-8C588.1-137.7,588.5-137.1,588.9-136.1z"/>
			</g>
			<g transform="matrix(0.565076,0,0,1,13.6214,0)">
				<path class="st3" d="M598.3-121h-1.6v5.7c0,1.6-2.1,2.8-4.8,2.8h-9.5c-2.6,0-4.8-1.3-4.8-2.8v-5.7h-1.6v-3h22.2V-121z"/>
			</g>
		</g>
		<g transform="matrix(0.521637,0,0,0.88437,95.3414,303.939)">
			<circle class="st3" cx="647.8" cy="-178.3" r="0"/>
		</g>
	</g>
	<g transform="matrix(0.939036,0,0,0.897668,54.2335,349.793)">
		<g transform="matrix(0.565076,0,0,1,660.696,772.116)">
			<path class="st36" d="M-208.1-781.8c0-1.6-1.1-3.2-3.1-4.4c-2-1.2-4.6-1.8-7.4-1.8c-32,0-127.9,0-159.9,0c-2.8,0-5.5,0.7-7.4,1.8
				c-2,1.2-3.1,2.7-3.1,4.4c0,20.9,0,88.4,0,109.3c0,1.6,1.1,3.2,3.1,4.4c2,1.2,4.6,1.8,7.4,1.8c32,0,127.9,0,159.9,0
				c2.8,0,5.5-0.7,7.4-1.8c2-1.2,3.1-2.7,3.1-4.4C-208.1-693.4-208.1-760.9-208.1-781.8z"/>
		</g>
		<g transform="matrix(0.565076,0,0,1,-83.8298,-416.334)">
			<path class="st37" d="M1019.1,417.3c15.7,0,31.2,4.5,40.9,11.9c5,3.8,8.4,8.3,9.9,13c2.6,8.1-0.6,16.7-8.7,23.4
				c-9.5,7.9-25.6,12.9-42.1,12.9c-16.4,0-32.5-4.8-42.2-12.7c-11.1-9-13-21.7-4.2-31.9c8.5-9.9,26.3-16.6,45.7-16.7
				C1018.7,417.3,1018.9,417.3,1019.1,417.3z M1018.8,419.8c-14.6,0-29,4.2-37.9,11.2c-10.4,8.1-12.6,19.7-4.8,29.2
				c6.3,7.7,18.8,13.5,33,15.3c12,1.5,25,0.1,35.4-3.8c13.4-5,22.1-14.2,22.1-23.8c0-10.8-11.2-21.3-28.4-25.8
				C1032.1,420.6,1025.5,419.8,1018.8,419.8z"/>
		</g>
		<g transform="matrix(0.641229,0,0,0.670779,362.377,-19.5942)">
			<g transform="matrix(0.530627,0,0,0.897668,0,0)">
				<path class="st37" d="M337.5,80.7c3.1,2.2,8.2,3.2,13.1,2.3l10.2-1.8c7.6,7.2,19.4,12.7,33.4,15.3v6.3c0,3.3,3.6,6,8.6,7
					C373.2,107.7,348.5,96.3,337.5,80.7z"/>
			</g>
			<g transform="matrix(0.361896,-0.184086,0.108816,0.612224,303.35,1751.51)">
				<path class="st37" d="M468.6-2631.6c9.1,1.2,17.3,6.8,18.3,12.7l1.9,10.4c1.1,6-5.5,10-14.8,8.9l-1.7-0.2
					c-5.6-9.8-7.5-19.9-4.7-29.2C468-2629.9,468.3-2630.8,468.6-2631.6z"/>
			</g>
			<g transform="matrix(0.361896,-0.184086,0.108816,0.612224,303.35,1751.51)">
				<path class="st37" d="M439-2630.1c-0.8,6.6,0.1,13.4,2.4,20.2c-1.1-1.4-1.8-2.9-2.1-4.4l-1.9-10.4
					C437.1-2626.8,437.6-2628.7,439-2630.1z"/>
			</g>
			<g transform="matrix(0.361896,-0.184086,0.108816,0.612224,303.35,1751.51)">
				<path class="st37" d="M468.6-2631.6c-0.3,0.8-0.6,1.7-0.9,2.6c-2.8,9.4-0.9,19.5,4.7,29.2l-14.4-1.7c-6.9-0.8-13.4-4.2-16.6-8.4
					c-2.3-6.8-3.1-13.6-2.4-20.2c2.4-2.7,7.3-4.1,13.2-3.4l16,1.9L468.6-2631.6z"/>
			</g>
			<g transform="matrix(0.377902,2.77556e-17,1.38778e-17,0.639302,719.805,1054.3)">
				<path class="st37" d="M-1339.3-1495c4.4,0.3,8.9,0.5,13.5,0.5h-8.3C-1335.9-1494.5-1337.6-1494.7-1339.3-1495z"/>
			</g>
			<g transform="matrix(0.377902,2.77556e-17,1.38778e-17,0.639302,719.805,1054.3)">
				<path class="st37" d="M-1312.2-1495c-1.7,0.3-3.4,0.5-5.2,0.5h-8.3C-1321.2-1494.5-1316.7-1494.7-1312.2-1495z"/>
			</g>
			<g transform="matrix(0.377902,2.77556e-17,1.38778e-17,0.639302,719.805,1054.3)">
				<path class="st37" d="M-1317.5-1524.8c9.6,0,17.3,4.6,17.3,10.2v0.9c-8.1,1.5-16.7,2.3-25.6,2.3c-8.9,0-17.6-0.8-25.6-2.3v-0.9
					c0-5.6,7.7-10.2,17.3-10.2H-1317.5z"/>
			</g>
			<g transform="matrix(0.377902,2.77556e-17,1.38778e-17,0.639302,719.805,1054.3)">
				<path class="st37" d="M-1300.1-1513.6v8.9c0,4.6-5.1,8.5-12.1,9.8c-4.4,0.3-9,0.5-13.5,0.5c-4.6,0-9.1-0.2-13.5-0.5
					c-7-1.3-12.1-5.2-12.1-9.8v-8.9c8.1,1.5,16.7,2.3,25.6,2.3C-1316.8-1511.3-1308.2-1512.1-1300.1-1513.6z"/>
			</g>
		</g>
		<g transform="matrix(0.565076,0,0,1,3.36964,20.1018)">
			<path class="st38" d="M913.5,52.2c0.4,0.1,0.7,0.1,1.1,0.2c2.1,0.6,3.1,2.2,2.3,3.5c-0.4,0.7-1.2,1.2-2.3,1.5
				c-0.9,0.3-1.2,0.3-2.2,0.3h-95.3c-0.4,0-0.8,0-1.2-0.1c-3.3-0.5-5-3.4-2-4.9c0.6-0.3,1.3-0.5,2-0.6c0.4-0.1,0.8-0.1,1.2-0.1h95.3
				C912.7,52.1,913.1,52.2,913.5,52.2z"/>
		</g>
		<g transform="matrix(0.438381,0,0,1,400.607,95.9043)">
			<path class="st38" d="M257.6-10.6c1.2,0.2,1.6,0.2,2.6,0.6c2.6,1,2.7,3.2,0,4.3c-0.8,0.3-1.7,0.5-2.6,0.6c-0.5,0.1-1,0.1-1.5,0.1
				h-95.3c-0.5,0-1,0-1.5-0.1c-4.3-0.5-6.5-3.4-2.6-4.9c0.8-0.3,1.7-0.5,2.6-0.6c0.5-0.1,1-0.1,1.5-0.1h95.3
				C256.6-10.7,257.1-10.7,257.6-10.6z"/>
		</g>
	</g>
	<g transform="matrix(0.357792,0,0,0.897668,594.385,255.18)">
		
			<rect x="-573.6" y="109" transform="matrix(0.9998 -1.993581e-02 1.993581e-02 0.9998 -2.3769 -11.4116)" class="st36" width="0" height="9"/>
	</g>
	<g transform="matrix(0.530627,0,0,0.897668,299.061,347.864)">
		<rect x="190" y="23.4" transform="matrix(1 -7.948857e-03 7.948857e-03 1 -0.216 1.5109)" class="st39" width="0" height="9"/>
	</g>
	<g transform="matrix(0.530627,0,0,0.897668,299.061,448.602)">
		<rect x="190" y="-69.6" transform="matrix(1 -4.699839e-03 4.699839e-03 1 0.308 0.8921)" class="st39" width="0" height="9"/>
	</g>
	<g transform="matrix(0.657987,0,0,0.629,801.825,-200.432)">
		<g class="st40">
			<g>
				<g transform="matrix(0.565076,0,0,1,0,0)">
					
						<rect x="-1425.5" y="481" transform="matrix(1 -2.779212e-03 2.779212e-03 1 -1.3475 -3.9598)" class="st41" width="0" height="3.7"/>
				</g>
				<g transform="matrix(0.565076,0,0,1,74.8867,0)">
					
						<rect x="-1519.6" y="481" transform="matrix(1 -1.571573e-03 1.571573e-03 1 -0.7607 -2.3876)" class="st41" width="0" height="3.7"/>
				</g>
				<g transform="matrix(0.565076,0,0,1,149.773,0)">
					<rect x="-1613.8" y="481" class="st41" width="0" height="3.7"/>
				</g>
				<g transform="matrix(0.565076,0,0,1,224.66,0)">
					<rect x="-1708" y="481" class="st41" width="0" height="3.7"/>
				</g>
				<g transform="matrix(0.565076,0,0,1,299.547,0)">
					<rect x="-1802.1" y="481" class="st41" width="0" height="3.7"/>
				</g>
			</g>
			<g transform="matrix(1,0,0,1,39.2364,74.528)">
				<g transform="matrix(0.565076,0,0,1,0,0)">
					<rect x="-1474.8" y="419.2" class="st41" width="0" height="3.7"/>
				</g>
				<g transform="matrix(0.565076,0,0,1,74.8867,0)">
					<rect x="-1569" y="419.2" class="st41" width="0" height="3.7"/>
				</g>
				<g transform="matrix(0.565076,0,0,1,149.773,0)">
					<rect x="-1663.1" y="419.2" class="st41" width="0" height="3.7"/>
				</g>
				<g transform="matrix(0.565076,0,0,1,224.66,0)">
					<rect x="-1757.3" y="419.2" class="st41" width="0" height="3.7"/>
				</g>
				<g transform="matrix(0.565076,0,0,1,299.547,0)">
					<rect x="-1851.5" y="419.2" class="st41" width="0" height="3.7"/>
				</g>
			</g>
			<g transform="matrix(1,0,0,1,39.2364,254.451)">
				<g transform="matrix(0.565076,0,0,1,0,0)">
					<rect x="-1474.8" y="270.1" class="st41" width="0" height="3.7"/>
				</g>
				<g transform="matrix(0.565076,0,0,1,74.8867,0)">
					<rect x="-1569" y="270.1" class="st41" width="0" height="3.7"/>
				</g>
				<g transform="matrix(0.565076,0,0,1,149.773,0)">
					<rect x="-1663.1" y="270.1" class="st41" width="0" height="3.7"/>
				</g>
				<g transform="matrix(0.565076,0,0,1,224.66,0)">
					<rect x="-1757.3" y="270.1" class="st41" width="0" height="3.7"/>
				</g>
				<g transform="matrix(0.565076,0,0,1,299.547,0)">
					<rect x="-1851.5" y="270.1" class="st41" width="0" height="3.7"/>
				</g>
			</g>
			<g transform="matrix(1,0,0,1,39.2364,434.373)">
				<g transform="matrix(0.565076,0,0,1,0,0)">
					<rect x="-1474.8" y="121" class="st41" width="0" height="3.7"/>
				</g>
				<g transform="matrix(0.565076,0,0,1,74.8867,0)">
					<rect x="-1569" y="121" class="st41" width="0" height="3.7"/>
				</g>
				<g transform="matrix(0.565076,0,0,1,149.773,0)">
					<rect x="-1663.1" y="121" class="st41" width="0" height="3.7"/>
				</g>
				<g transform="matrix(0.565076,0,0,1,224.66,0)">
					<rect x="-1757.3" y="121" class="st41" width="0" height="3.7"/>
				</g>
				<g transform="matrix(0.565076,0,0,1,299.547,0)">
					<rect x="-1851.5" y="121" class="st41" width="0" height="3.7"/>
				</g>
			</g>
			<g transform="matrix(1,0,0,1,0,168.465)">
				<g transform="matrix(0.565076,0,0,1,0,0)">
					<rect x="-1425.5" y="341.4" class="st41" width="0" height="3.7"/>
				</g>
				<g transform="matrix(0.565076,0,0,1,74.8867,0)">
					<rect x="-1519.6" y="341.4" class="st41" width="0" height="3.7"/>
				</g>
				<g transform="matrix(0.565076,0,0,1,149.773,0)">
					<rect x="-1613.8" y="341.4" class="st41" width="0" height="3.7"/>
				</g>
				<g transform="matrix(0.565076,0,0,1,224.66,0)">
					<rect x="-1708" y="341.4" class="st41" width="0" height="3.7"/>
				</g>
				<g transform="matrix(0.565076,0,0,1,299.547,0)">
					<rect x="-1802.1" y="341.4" class="st41" width="0" height="3.7"/>
				</g>
			</g>
			<g transform="matrix(1,0,0,1,0,336.929)">
				<g transform="matrix(0.565076,0,0,1,0,0)">
					<rect x="-1425.5" y="201.7" class="st41" width="0" height="3.7"/>
				</g>
				<g transform="matrix(0.565076,0,0,1,74.8867,0)">
					<rect x="-1519.6" y="201.7" class="st41" width="0" height="3.7"/>
				</g>
				<g transform="matrix(0.565076,0,0,1,149.773,0)">
					<rect x="-1613.8" y="201.7" class="st41" width="0" height="3.7"/>
				</g>
				<g transform="matrix(0.565076,0,0,1,224.66,0)">
					<rect x="-1708" y="201.7" class="st41" width="0" height="3.7"/>
				</g>
				<g transform="matrix(0.565076,0,0,1,299.547,0)">
					<rect x="-1802.1" y="201.7" class="st41" width="0" height="3.7"/>
				</g>
			</g>
			<g transform="matrix(1,0,0,1,0,505.394)">
				<g transform="matrix(0.565076,0,0,1,0,0)">
					<rect x="-1425.5" y="62.1" class="st41" width="0" height="3.7"/>
				</g>
				<g transform="matrix(0.565076,0,0,1,74.8867,0)">
					<rect x="-1519.6" y="62.1" class="st41" width="0" height="3.7"/>
				</g>
				<g transform="matrix(0.565076,0,0,1,149.773,0)">
					<rect x="-1613.8" y="62.1" class="st41" width="0" height="3.7"/>
				</g>
				<g transform="matrix(0.565076,0,0,1,224.66,0)">
					<rect x="-1708" y="62.1" class="st41" width="0" height="3.7"/>
				</g>
				<g transform="matrix(0.565076,0,0,1,299.547,0)">
					<rect x="-1802.1" y="62.1" class="st41" width="0" height="3.7"/>
				</g>
			</g>
		</g>
	</g>
	<g transform="matrix(1.01723,0,0,1.01504,35.7841,-202.983)">
		<g transform="matrix(0.521637,0,0,0.88437,0,0)">
			<rect x="208.5" y="616.1" class="st2" width="0" height="5"/>
		</g>
		<g transform="matrix(0.348078,0,0,0.88437,99.5501,55.0564)">
			<rect x="-1.6" y="564.5" class="st2" width="0" height="5"/>
		</g>
	</g>
	<g transform="matrix(1.01723,0,0,1.01504,-92.1853,38.1344)">
		<g transform="matrix(0.521637,0,0,0.88437,0,0)">
			<circle class="st42" cx="1271.7" cy="172.7" r="0"/>
		</g>
		<g transform="matrix(0.521637,0,0,0.88437,0,87.0605)">
			<circle class="st42" cx="1271.7" cy="91.1" r="0"/>
		</g>
		<g transform="matrix(0.521637,0,0,0.88437,69.0995,0)">
			<circle class="st42" cx="1177.6" cy="172.7" r="0"/>
		</g>
		<g transform="matrix(0.521637,0,0,0.88437,69.0995,87.0605)">
			<circle class="st42" cx="1177.6" cy="91.1" r="0"/>
		</g>
		<g transform="matrix(0.521637,0,0,0.88437,138.199,0)">
			<circle class="st42" cx="1083.5" cy="172.7" r="0"/>
		</g>
		<g transform="matrix(0.521637,0,0,0.88437,138.199,87.0605)">
			<circle class="st42" cx="1083.5" cy="91.1" r="0"/>
		</g>
		<g transform="matrix(0.521637,0,0,0.88437,207.299,0)">
			<circle class="st42" cx="989.4" cy="172.7" r="0"/>
		</g>
		<g transform="matrix(0.521637,0,0,0.88437,207.299,87.0605)">
			<circle class="st42" cx="989.4" cy="91.1" r="0"/>
		</g>
	</g>
	<g transform="matrix(0.530627,0,0,0.897668,-48.1316,69.0441)">
		<path class="st43" d="M1007.9,121.1c0-2.5-1.7-4.8-4.6-6.6c-3-1.7-7-2.7-11.2-2.7H783.8c-4.2,0-8.2,1-11.1,2.7
			c-3,1.7-4.6,4.1-4.6,6.6l0,0c0,2.5,1.7,4.8,4.6,6.6c3,1.7,7,2.7,11.1,2.7h208.4c4.2,0,8.2-1,11.2-2.7
			C1006.3,125.9,1007.9,123.6,1007.9,121.1L1007.9,121.1z"/>
	</g>
	<g transform="matrix(0.354086,0,0,0.599011,380.566,914.074)">
		<circle class="st43" cx="-22.2" cy="-783.4" r="0"/>
	</g>
	<g transform="matrix(0.354086,0,0,0.599011,554.523,914.074)">
		<circle class="st43" cx="-371.3" cy="-783.4" r="0"/>
	</g>
</g>
</svg>
