<?xml version="1.0" encoding="UTF-8"?>
<svg xmlns="http://www.w3.org/2000/svg" viewBox="0 0 580.69 450.68">
  <defs>
    <style>
      .cls-1 {
        fill: #f54f68;
      }

      .cls-2 {
        fill: #ed892b;
      }

      .cls-3 {
        fill: #ed6d7e;
      }

      .cls-4 {
        fill: #ffdcb3;
      }

      .cls-5 {
        fill: #ffa299;
      }

      .cls-6 {
        fill: #fff;
      }

      .cls-7 {
        fill: #fff6e8;
      }

      .cls-8 {
        fill: #ffbf59;
      }

      .cls-9 {
        fill: #82566a;
      }

      .cls-10 {
        fill: #331626;
      }

      .cls-11 {
        fill: #cc2b56;
      }

      .cls-12 {
        fill: #3d6b55;
      }

      .cls-13 {
        fill: #285794;
      }

      .cls-14 {
        fill: #613d4c;
      }

      .cls-15 {
        fill: #5e8e78;
      }

      .cls-16 {
        fill: #4c90cf;
      }
    </style>
  </defs>
  <g id="BACKGROUND">
    <g>
      <path class="cls-7" d="M558.7,293.37c-1.95,12.55-4.55,24.49-7.85,35.51-2.46,8.23-5.31,15.94-8.57,23.01-3.45,7.49-7.36,14.26-11.73,20.16-1.52,2.05-3.1,3.99-4.73,5.82-6.32,7.08-13.5,12.48-21.59,15.84-6.55,2.72-14.46,5.04-23.48,7-4.05,.88-8.31,1.68-12.79,2.42-1.35,.22-2.72,.44-4.11,.65-36,5.48-84.06,6.85-133.67,6.1-11.54-.18-23.16-.47-34.73-.85-22.52-.74-44.86-1.83-66.04-3.07-28.42-1.67-54.76-3.62-76.69-5.42-.2-.02-.4-.03-.62-.05-10.55-.87-20.05-1.7-28.25-2.44-1.44-.14-2.84-.26-4.2-.39-4.6-.43-8.72-.82-12.31-1.16-9.1-.88-14.79-1.48-16.16-1.63h-.04c-.09,0-.16-.02-.21-.02-.05-.01-.07-.01-.07-.01-1.34,.07-2.66,.1-3.96,.1-.52,0-1.04-.01-1.56-.02-.51-.01-1.02-.02-1.53-.05-.52,0-1.02-.04-1.53-.08-.4-.02-.8-.05-1.2-.09-3-.24-5.89-.68-8.69-1.3-.37-.08-.73-.17-1.09-.26-.67-.16-1.34-.33-2-.52-.31-.08-.61-.17-.91-.26-.61-.17-1.21-.36-1.8-.56-.45-.15-.89-.3-1.33-.46-1.61-.57-3.19-1.21-4.74-1.93l-.9-.42c-.38-.18-.76-.37-1.14-.56-.67-.34-1.34-.7-1.99-1.06-1.97-1.1-3.88-2.31-5.72-3.63-.31-.22-.62-.44-.92-.67-1.37-1.01-2.7-2.09-4-3.23-.27-.23-.53-.46-.79-.7-3.6-3.25-6.93-6.97-9.99-11.13-.43-.58-.85-1.16-1.26-1.76-.3-.42-.59-.85-.88-1.28-.24-.35-.47-.69-.7-1.05-.46-.7-.91-1.41-1.36-2.14-.4-.64-.79-1.3-1.18-1.97-1.74-2.96-3.36-6.08-4.88-9.36-.2-.42-.39-.84-.58-1.27-.5-1.11-.99-2.25-1.47-3.4-.22-.53-.44-1.06-.66-1.6-.68-1.69-1.33-3.42-1.96-5.19-.37-1.03-.73-2.07-1.08-3.12-.24-.71-.47-1.43-.7-2.15-.46-1.45-.91-2.92-1.34-4.41-.21-.74-.42-1.49-.63-2.24-.21-.76-.41-1.52-.61-2.28-.55-2.09-1.07-4.22-1.55-6.38-.16-.68-.31-1.36-.46-2.05-.14-.66-.28-1.32-.41-1.98-.27-1.28-.53-2.58-.77-3.89-.15-.82-.3-1.65-.45-2.48s-.29-1.67-.43-2.51c-.14-.83-.27-1.67-.41-2.52-.26-1.7-.51-3.43-.74-5.17-.12-.87-.23-1.74-.34-2.62-.33-2.63-.63-5.3-.89-8-.09-.91-.17-1.81-.25-2.72-.08-.89-.16-1.79-.23-2.69l-.21-2.82c-.11-1.58-.21-3.18-.3-4.79-.09-1.47-.16-2.96-.22-4.45-.03-.66-.06-1.33-.09-2.01v-.05c-.07-1.91-.13-3.84-.17-5.78v-.03c-.02-.66-.03-1.32-.04-1.99-.02-.98-.03-1.96-.04-2.94-.01-1.28-.02-2.56-.02-3.84,0-12.84,.6-26.24,1.79-40.07,.15-1.72,.32-3.43,.53-5.12,.09-.74,.18-1.47,.28-2.2,.13-.98,.27-1.95,.42-2.92,.1-.63,.2-1.26,.31-1.88,.13-.83,.28-1.66,.43-2.49,.14-.76,.29-1.51,.44-2.26,.16-.78,.32-1.57,.49-2.35s.34-1.56,.53-2.33c.36-1.55,.74-3.1,1.15-4.63,.2-.76,.41-1.53,.63-2.29,.21-.76,.43-1.52,.66-2.27,.45-1.52,.93-3.02,1.42-4.51,.25-.75,.5-1.49,.76-2.23s.52-1.48,.79-2.22c.27-.73,.54-1.46,.82-2.2,.56-1.46,1.14-2.91,1.74-4.35,.27-.66,.55-1.31,.83-1.96,.05-.14,.12-.29,.18-.43,.28-.64,.56-1.28,.84-1.91,.64-1.42,1.29-2.84,1.97-4.24,.62-1.29,1.26-2.57,1.91-3.84,.08-.17,.17-.34,.26-.51,.3-.57,.59-1.13,.88-1.69,.56-1.04,1.12-2.08,1.7-3.12,.46-.83,.92-1.66,1.4-2.48,.03-.06,.07-.12,.11-.19,.49-.85,.98-1.69,1.49-2.53,.1-.18,.21-.36,.32-.53,.59-.99,1.19-1.96,1.8-2.93,.1-.17,.21-.33,.32-.5,.54-.87,1.1-1.74,1.67-2.6,.06-.1,.13-.2,.2-.3,.5-.76,1-1.52,1.52-2.28,.26-.4,.54-.79,.82-1.19,.48-.72,.98-1.44,1.49-2.15,.83-1.18,1.68-2.35,2.54-3.51,.64-.87,1.29-1.73,1.94-2.59,.64-.84,1.28-1.67,1.92-2.49,.11-.13,.21-.26,.31-.39,.76-.96,1.52-1.9,2.29-2.85,.76-.94,1.54-1.87,2.32-2.8,.67-.8,1.35-1.59,2.03-2.37,.16-.19,.33-.38,.49-.57,.75-.86,1.51-1.72,2.27-2.56,.79-.89,1.6-1.77,2.4-2.65l.05-.05c.78-.85,1.57-1.68,2.36-2.52,.76-.8,1.53-1.6,2.3-2.39,.83-.85,1.67-1.7,2.51-2.54s1.63-1.62,2.45-2.42c.72-.7,1.44-1.39,2.17-2.08,.43-.41,.86-.82,1.29-1.22,.11-.11,.23-.22,.34-.32,.8-.76,1.61-1.51,2.43-2.25,1.05-.96,2.11-1.92,3.17-2.86s2.13-1.88,3.21-2.81c.68-.59,1.36-1.17,2.05-1.75,.77-.66,1.55-1.32,2.34-1.96,.95-.79,1.9-1.57,2.85-2.34,.62-.51,1.25-1.01,1.87-1.51,.67-.54,1.35-1.07,2.03-1.6,.81-.64,1.62-1.27,2.43-1.89,.97-.75,1.94-1.49,2.92-2.22,1.07-.81,2.15-1.61,3.22-2.41,6.8-4.99,13.69-9.66,20.58-14.03,2.48-1.57,4.95-3.1,7.42-4.59,.83-.49,1.65-.99,2.47-1.47,1.64-.98,3.28-1.94,4.92-2.87,.82-.47,1.63-.94,2.45-1.4,1.62-.91,3.23-1.81,4.83-2.69,2.44-1.33,4.86-2.63,7.27-3.88,.8-.42,1.59-.83,2.38-1.23,2.43-1.25,4.83-2.45,7.2-3.61,1.51-.73,3-1.45,4.48-2.15,.76-.36,1.52-.72,2.28-1.07,7.57-3.53,14.78-6.6,21.46-9.22,1-.39,1.99-.78,2.97-1.15s1.95-.74,2.9-1.09c4.62-1.71,9.95-3.3,15.88-4.76,2.45-.6,5.01-1.18,7.66-1.73,54.96-11.51,151.01-12.89,222.17,2.36,26.65,5.71,49.8,13.75,66.01,24.46,23.12,15.29,40.4,58.06,49.46,108.9,.51,2.81,.98,5.64,1.43,8.49,.11,.63,.2,1.27,.3,1.91,.37,2.39,.72,4.79,1.04,7.2,.69,4.98,1.29,10.01,1.81,15.08,.25,2.35,.48,4.7,.69,7.07v.03c.35,3.96,.66,7.94,.91,11.93,.08,1.24,.16,2.49,.23,3.74,1.68,29.93,.59,60.25-3.66,87.68Z"/>
      <path class="cls-4" d="M239.01,48.39l-33.82,324.42h7.62l5.05-48h71.55l-5.45,48h7.62L328.69,48.39h-7.91l-2.66,23.44h-73.66l2.46-23.44h-7.91Zm78.28,30.78l-4.74,41.79h-73.25l4.39-41.79h73.6Zm-88.33,140.05l4.39-41.79h72.78l-4.74,41.79h-72.43Zm71.6,7.34l-4.74,41.79h-72.02l4.39-41.79h72.37Zm-66.44-56.47l4.39-41.79h73.19l-4.74,41.79h-72.84Zm-15.5,147.39l4.39-41.79h71.96l-4.74,41.79h-71.61Z"/>
      <path class="cls-4" d="M536.72,150.76c-2.51,.07-4.61-1.9-4.7-4.42l-1-28.97c-.04-3.76-3.08-6.79-6.84-6.82h0c-3.95-.03-7.11,3.26-6.93,7.2l1.91,41.83c.17,3.78-2.74,6.99-6.52,7.19l-18.21,.96c-3.9,.2-7.2-2.88-7.25-6.79l-.66-50.89c-.05-3.91-3.35-7-7.25-6.79l-32.9,1.76c-3.99,.21-7.32-3-7.25-6.99l1.36-81.16c26.65,5.71,49.8,13.75,66.01,24.46,23.12,15.29,40.4,58.06,49.46,108.9l-19.23,.53Z"/>
      <path class="cls-4" d="M550.85,328.88c-2.46,8.23-5.31,15.94-8.57,23.01h-20.79c-2.83,0-5.12-2.29-5.12-5.12v-12.91c0-2.83,2.29-5.12,5.12-5.12h28.16c.41,0,.81,.05,1.2,.14Z"/>
      <rect class="cls-4" x="470.34" y="277.66" width="38.4" height="23.15" rx="5.12" ry="5.12"/>
      <rect class="cls-4" x="514.39" y="229.48" width="38.4" height="23.15" rx="5.12" ry="5.12"/>
      <rect class="cls-4" x="427.43" y="230.79" width="38.4" height="23.15" rx="5.12" ry="5.12"/>
      <rect class="cls-4" x="131.52" y="249.18" width="38.4" height="23.15" rx="5.12" ry="5.12"/>
      <rect class="cls-4" x="145.07" y="328.74" width="38.4" height="23.15" rx="5.12" ry="5.12"/>
      <path class="cls-4" d="M530.55,372.05c-1.52,2.05-3.1,3.99-4.73,5.82H139.43v-5.82h391.12Z"/>
      <rect class="cls-4" x="347.24" y="61.38" width="38.4" height="23.15" rx="5.12" ry="5.12"/>
      <path class="cls-15" d="M215.1,106.84l-10.45,5.65-2.26-17.51-2.31,17.87-8.25,3.3-1.58-23.8-.36,24.57-19.97,7.99-1.5-19.2-1.37,20.35-8.42,3.37-5.91,271.11c-18.32-1.32-57.77-5.94-67.73-5.63l.75-167.13c.02-4.83-4.62-8.32-9.25-6.95h0c-3.03,.89-5.13,3.66-5.18,6.82l-2.28,164.89C-.26,371.87,.85,239.6,15.42,182.27,41.12,98.73,137.01,35.54,218.31,14.52c.72,16.32-2.54,50.76-3.21,92.32Z"/>
    </g>
  </g>
  <g id="FOREGROUND">
    <g>
      <g>
        <path class="cls-16" d="M472.26,151.75c-3.98,4.38-9.52,13.13-4.91,24.74,1.1,2.77,3.67,4.68,6.63,5.04l81.66,9.83c3.18,.38,6.31-1.09,7.97-3.82,2.9-4.75,6.16-13.02,2.69-23.04-1.03-2.98-3.66-5.12-6.79-5.51l-80.13-9.89c-2.67-.33-5.32,.67-7.12,2.66Z"/>
        <path class="cls-13" d="M568.1,176.79c-1.5,8.79-6.59,15.25-11.37,14.44-4.78-.81-7.44-8.6-5.94-17.39,1.5-8.79,6.59-15.25,11.37-14.44,4.78,.81,7.44,8.6,5.94,17.39Z"/>
        <path class="cls-16" d="M564.03,175.66c-.8,4.72-3.23,8.24-5.43,7.86-2.2-.37-3.35-4.5-2.55-9.21,.8-4.72,3.23-8.24,5.43-7.86,2.2,.37,3.35,4.5,2.55,9.21Z"/>
        <path class="cls-8" d="M503.43,226.87l-2.94-.62,1.13-5.39c1.41-6.69,7.62-11.21,14.45-10.52,5.11,.51,9.74,.75,13.92,.75,29.31,0,37.07-11.77,40.54-23.73,.76-2.63,.56-4.73-.63-6.44-2.66-3.82-9.36-4.35-9.43-4.35l.21-2.99c.33,.02,8.19,.63,11.67,5.62,1.72,2.46,2.07,5.49,1.05,9-2.61,8.99-8.73,30.03-57.64,25.12-5.3-.54-10.13,2.97-11.22,8.16l-1.13,5.39Z"/>
        <path class="cls-15" d="M494.53,223.92s-4.71,17.41,4.99,17.79c9.69,.38,11.58-16.19,11.58-16.19l-16.56-1.6Z"/>
        <path class="cls-15" d="M504.79,233.9l-.97,6.7-23.07,160.11c-4.05,.88-8.31,1.68-12.79,2.42-1.35,.22-2.72,.44-4.11,.65l31.03-164.63,.88-4.68,9.03-.57Z"/>
      </g>
      <path class="cls-6" d="M249.83,373.52s28.38,4.52,40.52-4.09c-22.87,13.84-40.52,4.09-40.52,4.09Z"/>
      <path class="cls-6" d="M496.13,339.22c-4.32-8.12-10-17.44-13.24-22.65,1.07-.46,2.1-.82,3.08-1.07-12.05-25.22-37.65-53.08-48.56-52.71,0,0,0,0,0,0-6.34-1.99-12.73-3.31-19.08-4.09-.02-.49-.34-2.12-3.94-2.15-2.23-.29-6.03-.75-10.58-1.1-.53,.69-1.03,1.45-1.5,2.29-.64,0-1.28,.01-1.92,.02-1.41,.02-2.81,.07-4.21,.14l-.12-4.77-.39-14.65c10.31-6.04,18.52-14.35,21.69-23.97,20.05-4.8,20.61-23.72,20.61-23.72,0,0,24.33-36.32-.46-43.46,6.16-1.6,15.81-4.77,13.16-8.49-1.95-2.74-6.59-.17-10.66,3,5.56-6.89,11.74-16.81,2.05-17.54-7.9-.6-9.66,6.16-9.56,12.68-8.04-21.61-34.19-68-102.39-25.9-11.29-.38-17.13-11.48-22.96-2.07s-2.64,27.67,11.86,26.16c-14.12,12.61-17.13,31.62-4.14,30.31,.72-.07,1.44-.2,2.15-.35-.33,2.41-.6,4.76-.83,7.07-2.79,3.11-4.52,7.3-4.52,11.92,0,4.24,1.45,8.13,3.85,11.15,1.74,32.6,15.8,50.27,35.2,53.13,1.44,.21,2.93,.36,4.43,.44,.3,1.82,.73,4.59,1.1,7.62,.33,2.63,.61,5.45,.74,8.05-1.18,.34-2.35,.68-3.46,1.02-.95,.29-1.87,.58-2.76,.86,.1-.27,.65-2.15-3.48-1.67-1.9,.15-4.85,.77-8.24,2.87-.3,.8-.76,1.08-1.02,3.43-1.54,.63-2.75,1.16-3.64,1.55-1.92-.03-4.04-.01-6.4,.07-8.79,.3-20.71,1.43-36.85,3.33-.09,.49-.17,.96-.25,1.44-3.3,.47-6.51,.97-9.32,1.45-9.86-19.74-27.35-40.4-32.59-54.29,0,0-.71-5.28-9.3-13.91-1.48-2.26-3.06-4.49-4.08-6.18-2.98-4.98-6.62-11.99-9.97-10.58-.49,.21-.88,.44-1.21,.69-2-5.38-5.23-13.06-7.68-14.1-.17-.07-.35-.12-.52-.17,2.02-6.61,10.54-14.65,10.54-14.65l-9.75-28.45c-.22-.63-.94-.92-1.54-.62l-.05,.03c-.45-1.46-1.1-3.65-1.77-6.21-.01-.04-.02-.08-.03-.12-.07-.28-.15-.57-.22-.86-.02-.1-.05-.19-.07-.29-.05-.2-.1-.41-.15-.62-.14-.58-.28-1.18-.42-1.79-.17-.73-.32-1.47-.48-2.22-.07-.36-.15-.72-.22-1.09-.12-.62-.23-1.24-.34-1.87-.08-.47-.15-.93-.22-1.4-.08-.53-.15-1.06-.22-1.59-.04-.34-.08-.67-.12-1-.08-.8-.15-1.58-.19-2.34-.02-.42-.04-.84-.04-1.25-.01-.67,0-1.33,.03-1.95-1.96,.83-4.23,1.65-6.32,2.37-3.61,1.23-6.67,2.14-6.67,2.14l-.28,7.63-3.1-6.5s-20.9,8.47-23.16,8.76c-1.62,4.61-.39,12.35-.29,12.94l-3.94-10.12s-4.24,1.41-12.43,5.36c2.18,2.02,6.77,10.07,10.45,16.87,1.86,3.44,3.49,6.57,4.45,8.43l-.27,.14c-.58,.29-.78,1.01-.44,1.56l16.59,26.65,.46-.25c.74-.15,2.14-.43,3.94-.66,5.65-.71,15.01-1,18.65,4.17,1.15,1.62,2.12,4.06,3.12,6.97-2.54-.4-4.96-.41-6.08,.37,0,0-7.1,4.44,1,10.73,.03,.03,.04,.07,0,.1-3.21,2.24,.23,8.38,2.34,8.9,.04,0,.05,.05,.03,.08-1.59,2.92-.39,6.15,3.06,8.12,3.6,2.56,12.95,8.96,17.26,9.72,.23,.48,.45,.98,.67,1.5,.57,1.34,1.12,2.78,1.64,4.32,10.2,29.96,12.76,95.22,40.58,83.43,.28,.2,.57,.31,.86,.29,2.41-.12,8.65-.35,15.96-1.34,1.59,5.5,3.81,6.23,3.81,6.23,5.25,.16,11.35-.04,17.41-.64,5.01-.5,9.98-1.27,14.43-2.33-.51,5.4-.96,11.09-1.34,17.05-.47,7.38-.81,15.15-.97,23.25-.28,13.18-.08,27.2,.84,41.71,24.91,.38,49.43,.22,72.22-.73-.96,.31-1.78,.55-2.36,.66-3.5,2.55-4.13,6.69,.39,6.49-.51,.63-.99,1.26-1.42,1.89,0,0-8.09,16.56-8.47,20.71s5.65,6.78,7.72,5.08c1.05-.86,3.36-5.34,5.57-9.78-.19,2.09-.23,3.95,.03,4.98,2.12,2.68,5.22,1.69,7.06,.28,.85,3.95,8.89,2.82,10.02,.99,3.39,4.09,5.6,.99,8.94-7.76,0,0,11.11-16.38,9.98-20.14,2.46-1.84,5.81-4.17,9.72-6.86,6.44-.74,12.59-1.58,18.39-2.54-.1-2.23-.28-5.65-.56-9.99,23.87-17.39,50.07-40.16,35.7-54.02Zm-183.42-155.11c0-3.79,1.23-7.27,3.29-10.04-.62,6.92-.78,13.35-.55,19.31-1.72-2.63-2.74-5.83-2.74-9.27Z"/>
      <path class="cls-14" d="M299.81,330.84s-10.92-3.57-1.7-54.96c13.55,10.73,19.58,17.32,18.45,23.53-1.13,6.21-10.35,24.28-10.35,24.85s-6.4,6.59-6.4,6.59Z"/>
      <path class="cls-3" d="M278.91,280.49s25.98-5.08,37.84-4.8c11.86,.28,20.33,29.36,7.91,39.25-12.42,9.88-38.96,10.73-44.61,11.01-5.65,.28-8.19-40.66-1.13-45.46Z"/>
      <path class="cls-8" d="M359.38,300.82c.19,4.08-3.91,11.78-9.83,17.69-2,2-4.22,3.8-6.54,5.18-5.75,3.41-15.71,5.51-25.79,6.51-6.06,.6-12.16,.8-17.41,.64,15.43-14.3,8.66-46.91-1.7-54.96,16.14-1.9,28.06-3.03,36.85-3.33,2.92-.1,5.49-.11,7.75-.04,21.25,.77,15.82,9.66,16.67,28.31Z"/>
      <path class="cls-2" d="M350.06,290.94l-.51,27.57c-2,2-4.22,3.8-6.54,5.18-5.75,3.41-15.71,5.51-25.79,6.51,9.44-11.67,15.32-42.47,17.74-57.65,2.92-.1,5.49-.11,7.75-.04,3.89,7.94,7.35,18.43,7.35,18.43Z"/>
      <path class="cls-8" d="M467.96,403.13c-36.41,6.02-86.26,7.53-137.78,6.75-.92-14.51-1.12-28.53-.84-41.71,.16-8.1,.5-15.87,.97-23.25,2.68-42.52,9.4-71.68,9.4-71.68,0,0,1.89-.92,5.29-2.31,2.39-.97,5.53-2.18,9.28-3.48,.64-.22,1.29-.44,1.96-.66,1.35-.45,2.77-.9,4.26-1.35,12.24-3.75,28.83-7.49,46.85-7.77,.64-.01,1.28-.02,1.92-.02,4.49-.01,9.05,.2,13.65,.69,7.12,.73,14.32,2.12,21.45,4.36,7.05,18.84,12.05,41.48,15.57,63.15,.24,1.49,.48,2.98,.71,4.46,5.15,33.27,6.87,63.42,7.31,72.82Z"/>
      <path class="cls-2" d="M356.65,340.26c-7.9-4.52-7.15-33.89-7.15-33.89l4.52-35.39,.26-3.53c.64-.22,1.29-.44,1.96-.66,1.35-.45,2.77-.9,4.26-1.35,0,0-11,40.93-3.85,74.82Z"/>
      <path class="cls-6" d="M407.35,257.67c-1.38,8.62-13.96,31.32-32.82,30.26-16.37-.92-15.08-16.64-14.03-22.49,12.24-3.75,28.83-7.49,46.85-7.77Z"/>
      <path class="cls-2" d="M467.96,403.13c-36.41,6.02-86.26,7.53-137.78,6.75-.92-14.51-1.12-28.53-.84-41.71,56.13,4.36,89.45-10.04,113.34-28.67-20.39-18.94-10.45-54.21-10.45-54.21l23.15,43.48s0,.01-1.51,2.87c2.15-1.93,4.18-3.87,6.07-5.79,.24,1.49,.48,2.98,.71,4.46,5.15,33.27,6.87,63.42,7.31,72.82Z"/>
      <path class="cls-1" d="M467.96,403.13c-36.41,6.02-86.26,7.53-137.78,6.75-.92-14.51-1.12-28.53-.84-41.71,.16-8.1,.5-15.87,.97-23.25,4.06-2.62,9.37-8.35,10.72-20.66,1.86-16.98,2.76-42.37,3.97-53.33,.26-2.35,.72-2.63,1.02-3.43,3.39-2.1,6.34-2.72,8.24-2.87,1.42-.11,2.25,.05,2.25,.05,0,0,.09-.12-.27,2.11-1.97,12.25-8.42,59.05,3.05,69.32,1.91,1.71,4,2.91,6.19,3.68,13.33,4.71,30.38-6.29,33.71-12.33,4.99-9.04,1.18-54.13,10.08-69.81,.47-.84,.97-1.6,1.5-2.29,4.55,.35,8.35,.81,10.58,1.1,1.36,.19,2.13,.31,2.13,.31,0,0-.21,.54-.56,1.57-2.32,6.78-10.79,34.7-4.9,66.1,.93,4.94,2.39,8.91,4.23,12.04,3.32,5.67,7.89,8.56,12.75,9.36,9.99,1.65,21.26-5.53,25.65-15.53,5.15,33.27,6.87,63.42,7.31,72.82Z"/>
      <path class="cls-11" d="M467.96,403.13c-36.41,6.02-86.26,7.53-137.78,6.75-.92-14.51-1.12-28.53-.84-41.71,47.71,3.71,81.83-7.46,105.66-22.33,9.99,1.65,21.26-5.53,25.65-15.53,5.15,33.27,6.87,63.42,7.31,72.82Z"/>
      <path class="cls-3" d="M454.91,337.62s12.42,23.72,24.85,31.62c12.42,7.91,29.74-18.07,23.34-30.12-6.4-12.05-15.81-26.73-15.81-26.73l-32.38,25.22Z"/>
      <path class="cls-8" d="M455.28,344.39s24.09-25.6,37.65-28.99c-12.05-25.22-37.65-53.08-48.56-52.71-10.92,.38-29.36,21.84,10.92,81.69Z"/>
      <path class="cls-3" d="M417.4,403.17s-13.55,5.93-17.36,6.64c-4.66,3.39-4.24,9.6,6.64,4.66,10.87-4.94,10.73-11.29,10.73-11.29Z"/>
      <path class="cls-5" d="M422.15,399.36s-.75,15.06,17.69,13.18c18.07-13.55,84.33-53.08,63.25-73.41-21.08-20.33-47.06,23.72-59.48,36.89-12.42,13.18-21.46,23.34-21.46,23.34Z"/>
      <path class="cls-3" d="M405.4,423.5s-2.4,12.28-1.55,15.67c2.12,2.68,5.22,1.69,7.06,.28,.85,3.95,8.89,2.82,10.02,.99,3.39,4.09,5.6,.99,8.94-7.76,3.34-8.75-24.47-9.18-24.47-9.18Z"/>
      <path class="cls-5" d="M422.15,399.36s-16.56,9.22-23.15,18.82c11.67,16.19,30.87,14.49,30.87,14.49,0,0,11.11-16.38,9.98-20.14-3.58-9.22-17.69-13.18-17.69-13.18Z"/>
      <path class="cls-5" d="M399,418.18s-8.09,16.56-8.47,20.71c-.38,4.14,5.65,6.78,7.72,5.08,2.07-1.69,9.04-17.51,10.54-19.2,1.51-1.69-6.4-7.53-9.79-6.59Z"/>
      <path class="cls-5" d="M283.81,323.13c-32.2,21.34-34.47-49.35-45.21-80.9-.52-1.54-1.07-2.98-1.64-4.32-.31-.75-.64-1.46-.97-2.13,0,0,12.81-2.26,19.96-11.3,9.79,25.98,62.49,75.68,27.86,98.65Z"/>
      <path class="cls-3" d="M246.16,237.95c-3.21,2.77-6.04,3.86-7.56,4.28-.52-1.54-1.07-2.98-1.64-4.32,2.11,.47,5.13,.71,9.2,.04Z"/>
      <path class="cls-5" d="M403.15,258.18s-10.54,20.71-23.53,23.91c-12.99,3.2-16-5.46-15.63-13.36,.17-3.47-.25-8.17-.77-12.36-.66-5.35-1.49-9.86-1.49-9.86,15.06,5.27,40.85-10.16,40.85-10.16l.44,16.69,.13,5.14Z"/>
      <path class="cls-3" d="M403.02,253.04c-11.56,9.25-29.81,6.09-39.8,3.33-.66-5.35-1.49-9.86-1.49-9.86,15.06,5.27,40.85-10.16,40.85-10.16l.44,16.69Z"/>
      <g>
        <path class="cls-5" d="M444.93,190.7s-.56,18.92-20.61,23.72c-7.34,22.31-41.79,37.55-66.63,33.88-24.85-3.67-40.94-31.62-33.6-84.14,6.29-18.41,27.14-26.56,44.37-30.16,13.69-2.87,25.09-2.87,25.09-2.87l23.43,17.5s27.67,31.06,27.95,42.07Z"/>
        <path class="cls-3" d="M402.58,161.34c-15.53,8.75-49.13,1.97-56.75-6.78-9.6,8.47-21.74,9.6-21.74,9.6,6.29-18.41,27.14-26.56,44.37-30.16l30.17,3.62s19.48,14.96,3.95,23.72Z"/>
      </g>
      <path class="cls-10" d="M334.81,170.28c.86,3.06,13.08,1.04,12.8-1.41-.28-2.45-14.87-5.93-12.8,1.41Z"/>
      <path class="cls-10" d="M368.98,169.71c.15,2.92,14.68,4.05,14.49-1.22-.19-5.27-14.78-4.24-14.49,1.22Z"/>
      <path class="cls-14" d="M444.93,190.7s-3.76-11.39-13.17-10.82c-9.41,.56-14.12,13.74-11.67,23.53-15.44-.38-5.84-23.91-5.84-23.91,0,0-24.84-3.76-14.68-22.21-32.38,8.28-53.27-8.85-53.27-8.85,0,0-.01,0-.01,.01-.35,.47-11.67,15.64-24.46,16.93-8.08,.82-9.97-6.22-6.85-14.69h0c1.9-5.16,5.65-10.84,10.99-15.61-3.18,.33-5.82-.29-7.94-1.57-4.76-2.86-6.89-9.01-6.65-15.01,.13-3.47,1.06-6.89,2.73-9.59,5.84-9.41,11.67,1.7,22.97,2.07,68.1-42.04,94.28,4.18,102.36,25.83,2.19,5.87,3.05,9.94,3.05,9.94,28.04,5.74,2.44,43.95,2.44,43.95Z"/>
      <path class="cls-10" d="M341.5,191.45h0c-2.44,0-4.42-1.98-4.42-4.42v-4.14c0-2.44,1.98-4.42,4.42-4.42h0c2.44,0,4.42,1.98,4.42,4.42v4.14c0,2.44-1.98,4.42-4.42,4.42Z"/>
      <path class="cls-10" d="M373.31,192.02h0c-2.44,0-4.42-1.98-4.42-4.42v-4.14c0-2.44,1.98-4.42,4.42-4.42h0c2.44,0,4.42,1.98,4.42,4.42v4.14c0,2.44-1.98,4.42-4.42,4.42Z"/>
      <path class="cls-6" d="M335.08,201.39c-9.07,0-16.45-7.79-16.45-17.37s7.38-17.37,16.45-17.37,16.45,7.79,16.45,17.37-7.38,17.37-16.45,17.37Zm0-33.69c-8.49,0-15.4,7.32-15.4,16.32s6.91,16.32,15.4,16.32,15.4-7.32,15.4-16.32-6.91-16.32-15.4-16.32Z"/>
      <path class="cls-6" d="M373.49,202.15c-9.38,0-17.01-7.8-17.01-17.38s7.63-17.38,17.01-17.38,17.01,7.8,17.01,17.38-7.63,17.38-17.01,17.38Zm0-33.69c-8.79,0-15.95,7.32-15.95,16.32s7.16,16.32,15.95,16.32,15.95-7.32,15.95-16.32-7.16-16.32-15.95-16.32Z"/>
      <path class="cls-3" d="M348.74,202.28c-.6,.75,1.79,5.74,4.89,6.12,3.11,.38,7.15-4.24,7.44-6.02,.28-1.79-8.28-5.08-12.33-.09Z"/>
      <path class="cls-3" d="M362.63,232.49c-8.85,3.97-21.6-2.4-19.06-13.98,.09-.42,.8-.97,1.93-1.57,4.57-2.44,16.01-5.76,21.08-5.51,.87,.03,1.55,.17,1.98,.45,3.53,2.26,3.81,16.23-5.93,20.61Z"/>
      <path class="cls-6" d="M366.58,211.43c.09,2.57-1.25,6.7-10.3,7.65-6.46,.68-9.44-.62-10.78-2.14,4.57-2.44,16.01-5.76,21.08-5.51Z"/>
      <path class="cls-3" d="M424.46,200.58s9.46-.71,4.8,7.2c7.13-.07,14.89-13.41,10.8-19.98-4.09-6.56-18.14,3.6-15.6,12.78Z"/>
      <path class="cls-3" d="M355.14,235.74s7.34,1.55,11.86-3.11c-1.69,8.47-11.01,6.49-11.86,3.11Z"/>
      <path class="cls-10" d="M441.12,148.35s-7.06-25.27,7.91-24.14c14.96,1.13-7.91,24.14-7.91,24.14Z"/>
      <path class="cls-10" d="M439.71,148.35s14.12-14.96,17.93-9.6c3.81,5.36-17.93,9.6-17.93,9.6Z"/>
      <path class="cls-5" d="M255.95,224.48s-1.51-11.38-27.31-28.07c-14.32,13.9-11.07,29.23-11.07,29.23,0,0,16.75,12.36,20.31,10.7,11.63-2.6,18.07-11.86,18.07-11.86Z"/>
      <path class="cls-5" d="M233.25,199.81s-5.71-17.78-9.54-19.41c-3.82-1.63-7.21,2.65-6.23,5.14,.98,2.49,7.35,19.77,8.5,21.72s7.13-3.93,7.28-7.45Z"/>
      <path class="cls-3" d="M249.83,218.94s-13.69,7.34-14.96-7.44c-.63-7.3-9.07-14.81-2.26-17.69,3.35-1.42,6.99,5.6,9.97,10.58,2.98,4.98,11.77,13.41,7.25,14.55Z"/>
      <path class="cls-13" d="M222.9,184.08c-1.61-6.77,10.83-18.51,10.83-18.51l-41.3,22.45c.21-.04,1.98-.45,4.48-.77,5.65-.71,15.01-1,18.65,4.17,2.18,3.09,3.75,9.1,6.01,15.77,2.5,7.37,5.84,15.54,11.76,21.5,2.74,2.76,7.53,.58,7.25-3.29-1.34-19.24-14.89-29.62-17.68-41.32Zm12.46,40.93c-1.21,0-2.19-.98-2.19-2.19s.98-2.19,2.19-2.19,2.19,.98,2.19,2.19-.98,2.19-2.19,2.19Z"/>
      <path class="cls-16" d="M222.82,207.36l-1.25-.17c-2.26-6.67-3.83-12.68-6.01-15.77-3.64-5.17-13-4.88-18.65-4.17,2.27-.75,12.49-3.89,16.5-.22,4.51,4.14,9.41,20.33,9.41,20.33Z"/>
      <path class="cls-3" d="M228.4,210.67h.01c.88,.27,1.54,1,1.74,1.9,.37,1.7,.7,3.46,.92,5.15,.11,.84-.5,1.66-1.34,1.68-.07,0-.13,0-.19-.01,0,0,.31,.06,.7,.22,.67,.26,1.09,.93,1.11,1.65,.08,4.14-.91,7.29-4.1,7.31-9.32,.04-13.79-5.36-11.27-9.99,.02-.04,0-.08-.03-.08-2.11-.51-5.55-6.66-2.34-8.9,.04-.02,.03-.07,0-.1-8.09-6.29-1.01-10.72-1-10.73,2.78-1.94,13.46,.95,14.39,2.76,.01,.02,2.12,4.93,2.23,7.21-.06,.71-.26,1.6-.82,1.82-.05,.02-.05,.1,0,.11Z"/>
      <path class="cls-11" d="M350.81,322.46c-1.72-16.31,3-53.59,3.44-57.84,4.44-.52,3.46,1.71,3.46,1.71l-1.48,.45c-1.97,12.25-8.42,59.05,3.05,69.32,1.91,1.71,4,2.91,6.19,3.68,0,0-13.25-3.95-14.66-17.32Z"/>
      <path class="cls-11" d="M422.92,258.34c-2.32,6.78-10.79,34.7-4.9,66.1,.93,4.94,2.39,8.91,4.23,12.04-.02,.07-.06,.13-.09,.2-17.25-22.73-3.5-71.42-.81-80.22,4.23,.03,3.94,2.29,3.94,2.29l-2.37-.41Z"/>
      <path class="cls-8" d="M223.01,138.47l-2.14,1.09-43.32,22.06s-2.38-4.71-5.37-10.24c-3.68-6.8-8.27-14.85-10.45-16.87,8.19-3.95,12.43-5.36,12.43-5.36l3.94,10.12c-.1-.59-1.33-8.33,.29-12.94,2.26-.29,23.16-8.76,23.16-8.76l3.1,6.5,.28-7.63s3.06-.91,6.67-2.14c2.09-.72,4.36-1.54,6.32-2.37-.24,4.31,.7,9.92,1.83,14.87,1.47,6.38,3.26,11.67,3.26,11.67Z"/>
      <path class="cls-8" d="M223.01,138.47l-2.14,1.09-43.32,22.06s-2.38-4.71-5.37-10.24c-3.68-6.8-8.27-14.85-10.45-16.87,8.19-3.95,12.43-5.36,12.43-5.36l3.94,10.12c-.1-.59-1.33-8.33,.29-12.94,2.26-.29,23.16-8.76,23.16-8.76l3.1,6.5,.28-7.63s3.06-.91,6.67-2.14c2.09-.72,4.36-1.54,6.32-2.37-.24,4.31,.7,9.92,1.83,14.87,1.47,6.38,3.26,11.67,3.26,11.67Z"/>
      <path class="cls-2" d="M181.43,136.21s4.57,14.13,8.73,22.59c2.77-1.39,2.63-.69,2.63-.69,0,0-8.87-14.41-11.36-21.9Z"/>
      <path class="cls-2" d="M171.52,139.88s6.96,12.99,8.75,19.86l3.58-.75s-6.78-12.14-12.33-19.11Z"/>
      <path class="cls-2" d="M201.76,128.44s4.57,14.13,8.73,22.59c2.77-1.39,2.63-.69,2.63-.69,0,0-8.87-14.41-11.36-21.9Z"/>
      <path class="cls-2" d="M223.01,138.47l-2.14,1.09c-3.88-10.85-7.71-21.1-9.27-25.26,2.09-.72,4.36-1.54,6.32-2.37-.56,9.88,5.09,26.54,5.09,26.54Z"/>
      <path class="cls-16" d="M233.73,165.57l-3.58,1.96-37.64,20.63-16.59-26.65c-.34-.55-.14-1.27,.44-1.56l43.82-22.3,2.26-1.15c.6-.3,1.32-.01,1.54,.62l9.75,28.45Z"/>
      <path class="cls-13" d="M233.73,165.57l-3.58,1.96c-1.94-7.07-6.04-18.95-9.97-29.88l2.26-1.15c.6-.3,1.32-.01,1.54,.62l9.75,28.45Z"/>
      <polygon class="cls-13" points="183.76 162.04 184.18 164.16 223.71 143.69 222.44 142.14 183.76 162.04"/>
      <polygon class="cls-13" points="194.48 178.42 194.77 180.96 229.78 162.32 229.07 160.21 194.48 178.42"/>
      <path class="cls-11" d="M372.65,349.22c-14.99,0-21.64-11.43-21.71-11.55l.87-.49c.06,.11,6.45,11.04,20.84,11.04s26.03-14.53,26.15-14.68l.79,.62c-.12,.15-11.99,15.06-26.93,15.06Z"/>
      <path class="cls-6" d="M357.12,181.14c-1-1.34-2.04-1.99-3.09-2-1.63,.02-2.81,1.68-2.83,1.7l-.87-.61c.06-.09,1.51-2.12,3.68-2.15,1.4-.06,2.74,.79,3.96,2.42l-.85,.64Z"/>
      <rect class="cls-6" x="405.72" y="165.58" width="1.06" height="34" transform="translate(163.43 555.96) rotate(-81.16)"/>
      <path class="cls-15" d="M219.75,126.8c-1.09,.28-2.32,.08-3.57-.15-2.25-.43-4.6-.97-6.45,.95-2.18,2.26-2.76,5.76-4.62,8.47-.15,.22-.31,.44-.49,.65-1.25,1.56-3.05,2.76-6.04,3.16-6.58,.89-10.16-2.09-14.78,1.97-.11,.1-.23,.2-.34,.32h0c-1.13,1.07-2.32,2.56-3.64,4.63-.61,.96-1.22,1.75-1.82,2.39-.44,.48-.87,.87-1.3,1.18-1.63,1.23-3.16,1.39-4.51,1.01-3.68-6.8-8.27-14.85-10.45-16.87,8.19-3.95,12.43-5.36,12.43-5.36l3.94,10.12c-.1-.59-1.33-8.33,.29-12.94,2.26-.29,23.16-8.76,23.16-8.76l3.1,6.5,.28-7.63s3.06-.91,6.67-2.14c2.09-.72,4.36-1.54,6.32-2.37-.04,.7-.05,1.43-.03,2.19,.01,.27,.02,.53,.03,.8,.17,3.74,.94,8.01,1.83,11.88Z"/>
      <path class="cls-12" d="M201.92,128.92c.74,2.05,1.89,4.57,3.19,7.15-.15,.22-.31,.44-.49,.65-1.33-3.66-2.33-6.67-2.7-7.8Z"/>
      <path class="cls-2" d="M213.12,150.34s-.03-.04-.08-.13c.1,.05,.08,.13,.08,.13Z"/>
      <path class="cls-12" d="M181.59,136.69c.54,1.52,1.31,3.3,2.21,5.16-.11,.1-.23,.2-.34,.32h0c-.9-2.58-1.57-4.6-1.86-5.48Z"/>
      <path class="cls-2" d="M192.79,158.1s-.03-.05-.09-.14c.11,.05,.09,.14,.09,.14Z"/>
      <path class="cls-12" d="M177.99,149.19c-.44,.48-.87,.87-1.3,1.18-2.47-5.45-5.17-10.49-5.17-10.49,2.13,2.67,4.44,6.1,6.47,9.31Z"/>
      <path class="cls-12" d="M219.75,126.8c-1.09,.28-2.32,.08-3.57-.15-2-5.46-3.67-9.93-4.58-12.35,2.09-.72,4.36-1.54,6.32-2.37-.04,.7-.05,1.43-.03,2.19,.01,.26,.02,.53,.03,.8,.17,3.74,.94,8.01,1.83,11.88Z"/>
      <path class="cls-10" d="M444.93,190.7s-3.76-11.39-13.17-10.82c-9.41,.56-14.12,13.74-11.67,23.53-15.44-.38-5.84-23.91-5.84-23.91,0,0-24.84-3.76-14.68-22.21,23.49-1.29,39.11-19.57,39.87-20.48,2.19,5.87,3.05,9.94,3.05,9.94,28.04,5.74,2.44,43.95,2.44,43.95Z"/>
      <path class="cls-10" d="M346.29,148.45c-.35,.47-11.67,15.64-24.46,16.93-8.08,.82-9.97-6.22-6.85-14.69,1.23,4,6.94,14.73,31.31-2.24Z"/>
      <g>
        <path class="cls-8" d="M295.45,361.35v47.68c-22.52-.74-44.86-1.83-66.04-3.07v-44.61h66.04Z"/>
        <path class="cls-2" d="M295.45,381.62v27.41c-22.52-.74-44.86-1.83-66.04-3.07v-10.06c33.28,4.87,55.1-6.23,66.04-14.28Z"/>
        <path class="cls-15" d="M295.45,361.35c0,3.75-14.79,6.79-33.02,6.79s-33.02-3.04-33.02-6.79,14.79-6.79,33.02-6.79,33.02,3.04,33.02,6.79Z"/>
        <path class="cls-15" d="M302.54,389.95c-1.08,2.84-3.46,5.04-7.09,6.59-3.32,1.43-7.7,2.3-13.11,2.63-1.08,.06-2.15,.09-3.2,.09-30.58,0-44.69-26.7-44.83-26.98l3.32-1.72c.14,.27,14.18,26.69,44.48,24.87,5.91-.35,10.41-1.38,13.34-3.04,1.82-1.02,3.04-2.29,3.61-3.78,1.39-3.66-1.02-8.55-3.61-12.26v-5.99c2.75,3.11,9.93,12.14,7.09,19.57Z"/>
        <path class="cls-6" d="M240.18,372.91c0,2.53-1.49,4.57-3.33,4.57s-3.33-2.05-3.33-4.57,1.49-4.57,3.33-4.57,3.33,2.05,3.33,4.57Z"/>
      </g>
      <path class="cls-13" d="M469.21,169.52s.56,3.76,2.45,6.96c1.88,3.2,77.74,9.79,77.74,9.79,0,0-2.21-2.59-1.98-8.28-20.89,.56-78.21-8.47-78.21-8.47Z"/>
      <path class="cls-10" d="M338.63,130.42c-3.11,3.11-12.66,4.66-12.66,4.66-2.91,.04-5.62-.51-7.94-1.57-4.76-2.86-6.89-9.01-6.65-15.01,3.27-1.41,11.59,7.01,11.01,3.31-.7-4.52,1.42-5.65,4.24-.57,2.82,5.09,15.1,6.07,12,9.18Z"/>
      <path class="cls-9" d="M339.33,118.42s28.24-28.24,56.75-12.42c-30.78,0-56.75,12.42-56.75,12.42Z"/>
      <path class="cls-9" d="M387.05,145.52s22.73,4.38,42.35-8.47c-19.76,17.79-36.71,12.71-42.35,8.47Z"/>
    </g>
  </g>
</svg>