<svg xmlns="http://www.w3.org/2000/svg" width="128" height="128" viewBox="0 0 128 128">
  <title>PAINT ROLLER</title>
  <path d="M120.764,22.384h-5.108V16.213a11.011,11.011,0,0,0-11-11H31.287a11.012,11.012,0,0,0-11,11v6.171h-8.8a6.012,6.012,0,0,0-6,6.006V49.848a6.02,6.02,0,0,0,4.837,5.891L64.2,66.419a2.51,2.51,0,0,1,2.019,2.457v9.557h-5.91a1.751,1.751,0,0,0-1.75,1.75v33.193a9.41,9.41,0,0,0,18.82,0V80.183a1.751,1.751,0,0,0-1.75-1.75h-5.91V68.876a6.022,6.022,0,0,0-4.838-5.891L11,52.306a2.511,2.511,0,0,1-2.018-2.458V28.39a2.508,2.508,0,0,1,2.5-2.506h8.8v6.171a11.012,11.012,0,0,0,11,11h73.37a11.011,11.011,0,0,0,11-11V25.884h5.108a1.75,1.75,0,0,0,0-3.5ZM73.882,113.376a5.91,5.91,0,0,1-11.82,0V81.933h11.82Zm25-104.662V24.282a3.135,3.135,0,1,1-6.269,0V18.843a6.635,6.635,0,1,0-13.269,0V29.278a3.135,3.135,0,1,1-6.269,0V8.714Zm13.272,23.341a7.507,7.507,0,0,1-7.5,7.5H31.287a7.508,7.508,0,0,1-7.5-7.5V16.213a7.508,7.508,0,0,1,7.5-7.5h38.29V29.278a6.635,6.635,0,1,0,13.269,0V18.843a3.135,3.135,0,1,1,6.269,0v5.439a6.635,6.635,0,1,0,13.269,0V8.714h2.273a7.508,7.508,0,0,1,7.5,7.5Z"/>
</svg>
